<mxfile host="app.diagrams.net" modified="2022-06-29T08:11:28.638Z" agent="5.0 (Macintosh; Intel Mac OS X 10_15_7) AppleWebKit/537.36 (KHTML, like Gecko) Chrome/102.0.0.0 Safari/537.36" etag="tvdVB7Z3kGe4rp9Kwt35" version="20.0.3" type="github">
  <diagram id="CH8DpX-lFAURxRskI41Q" name="Page-1">
    <mxGraphModel dx="1426" dy="803" grid="1" gridSize="10" guides="1" tooltips="1" connect="1" arrows="1" fold="1" page="1" pageScale="1" pageWidth="827" pageHeight="1169" math="0" shadow="0">
      <root>
        <mxCell id="0" />
        <mxCell id="1" parent="0" />
        <mxCell id="Kd89IbtlPx_BLbznbSWo-65" value="" style="rounded=0;whiteSpace=wrap;html=1;shadow=0;dashed=1;strokeWidth=1;" vertex="1" parent="1">
          <mxGeometry y="80" width="690" height="510" as="geometry" />
        </mxCell>
        <mxCell id="Kd89IbtlPx_BLbznbSWo-29" value="" style="rounded=1;whiteSpace=wrap;html=1;dashed=1;shadow=0;strokeWidth=1;perimeterSpacing=0;" vertex="1" parent="1">
          <mxGeometry x="400" y="220" width="270" height="220" as="geometry" />
        </mxCell>
        <mxCell id="Kd89IbtlPx_BLbznbSWo-58" value="" style="endArrow=classic;html=1;rounded=0;strokeColor=#FFB366;startArrow=open;startFill=0;exitX=0.5;exitY=0;exitDx=0;exitDy=0;" edge="1" parent="1" source="Kd89IbtlPx_BLbznbSWo-31">
          <mxGeometry width="50" height="50" relative="1" as="geometry">
            <mxPoint x="480" y="320" as="sourcePoint" />
            <mxPoint x="530" y="270" as="targetPoint" />
          </mxGeometry>
        </mxCell>
        <mxCell id="Kd89IbtlPx_BLbznbSWo-59" value="" style="endArrow=classic;html=1;rounded=0;strokeColor=#FFB366;startArrow=open;startFill=0;entryX=0.5;entryY=1;entryDx=0;entryDy=0;" edge="1" parent="1" target="Kd89IbtlPx_BLbznbSWo-30">
          <mxGeometry width="50" height="50" relative="1" as="geometry">
            <mxPoint x="600" y="390" as="sourcePoint" />
            <mxPoint x="650" y="340" as="targetPoint" />
          </mxGeometry>
        </mxCell>
        <mxCell id="Kd89IbtlPx_BLbznbSWo-60" value="" style="endArrow=classic;html=1;rounded=0;strokeColor=#FFB366;startArrow=open;startFill=0;entryX=0.5;entryY=1;entryDx=0;entryDy=0;" edge="1" parent="1" target="Kd89IbtlPx_BLbznbSWo-30">
          <mxGeometry width="50" height="50" relative="1" as="geometry">
            <mxPoint x="600" y="320" as="sourcePoint" />
            <mxPoint x="650" y="270" as="targetPoint" />
          </mxGeometry>
        </mxCell>
        <mxCell id="Kd89IbtlPx_BLbznbSWo-61" value="" style="endArrow=classic;html=1;rounded=0;strokeColor=#FFB366;startArrow=open;startFill=0;" edge="1" parent="1">
          <mxGeometry width="50" height="50" relative="1" as="geometry">
            <mxPoint x="469" y="390" as="sourcePoint" />
            <mxPoint x="530" y="270" as="targetPoint" />
          </mxGeometry>
        </mxCell>
        <mxCell id="Kd89IbtlPx_BLbznbSWo-9" value="" style="rounded=1;whiteSpace=wrap;html=1;dashed=1;shadow=0;strokeWidth=1;perimeterSpacing=0;" vertex="1" parent="1">
          <mxGeometry x="110" y="220" width="270" height="220" as="geometry" />
        </mxCell>
        <mxCell id="Kd89IbtlPx_BLbznbSWo-51" value="" style="endArrow=classic;html=1;rounded=0;strokeColor=#FFB366;startArrow=open;startFill=0;" edge="1" parent="1">
          <mxGeometry width="50" height="50" relative="1" as="geometry">
            <mxPoint x="180" y="320" as="sourcePoint" />
            <mxPoint x="240" y="270" as="targetPoint" />
          </mxGeometry>
        </mxCell>
        <mxCell id="Kd89IbtlPx_BLbznbSWo-53" value="" style="endArrow=classic;html=1;rounded=0;strokeColor=#FFB366;startArrow=open;startFill=0;" edge="1" parent="1">
          <mxGeometry width="50" height="50" relative="1" as="geometry">
            <mxPoint x="180" y="390" as="sourcePoint" />
            <mxPoint x="240" y="270" as="targetPoint" />
          </mxGeometry>
        </mxCell>
        <mxCell id="Kd89IbtlPx_BLbznbSWo-54" value="" style="endArrow=classic;html=1;rounded=0;strokeColor=#FFB366;startArrow=open;startFill=0;entryX=0.5;entryY=1;entryDx=0;entryDy=0;" edge="1" parent="1" target="Kd89IbtlPx_BLbznbSWo-4">
          <mxGeometry width="50" height="50" relative="1" as="geometry">
            <mxPoint x="310" y="390" as="sourcePoint" />
            <mxPoint x="300" y="120" as="targetPoint" />
          </mxGeometry>
        </mxCell>
        <mxCell id="Kd89IbtlPx_BLbznbSWo-55" value="" style="endArrow=classic;html=1;rounded=0;strokeColor=#FFB366;startArrow=open;startFill=0;exitX=0.5;exitY=0;exitDx=0;exitDy=0;entryX=0.5;entryY=1;entryDx=0;entryDy=0;" edge="1" parent="1" source="Kd89IbtlPx_BLbznbSWo-6" target="Kd89IbtlPx_BLbznbSWo-4">
          <mxGeometry width="50" height="50" relative="1" as="geometry">
            <mxPoint x="280" y="320" as="sourcePoint" />
            <mxPoint x="330" y="270" as="targetPoint" />
          </mxGeometry>
        </mxCell>
        <mxCell id="Kd89IbtlPx_BLbznbSWo-2" value="sig-server" style="rounded=1;whiteSpace=wrap;html=1;" vertex="1" parent="1">
          <mxGeometry x="340" y="170" width="80" height="30" as="geometry" />
        </mxCell>
        <mxCell id="Kd89IbtlPx_BLbznbSWo-4" value="mc" style="rounded=1;whiteSpace=wrap;html=1;" vertex="1" parent="1">
          <mxGeometry x="200" y="240" width="80" height="30" as="geometry" />
        </mxCell>
        <mxCell id="Kd89IbtlPx_BLbznbSWo-5" value="dmcu1" style="rounded=1;whiteSpace=wrap;html=1;" vertex="1" parent="1">
          <mxGeometry x="140" y="320" width="80" height="30" as="geometry" />
        </mxCell>
        <mxCell id="Kd89IbtlPx_BLbznbSWo-6" value="dmcu2" style="rounded=1;whiteSpace=wrap;html=1;" vertex="1" parent="1">
          <mxGeometry x="270" y="320" width="80" height="30" as="geometry" />
        </mxCell>
        <mxCell id="Kd89IbtlPx_BLbznbSWo-7" value="dmcu3" style="rounded=1;whiteSpace=wrap;html=1;" vertex="1" parent="1">
          <mxGeometry x="140" y="390" width="80" height="30" as="geometry" />
        </mxCell>
        <mxCell id="Kd89IbtlPx_BLbznbSWo-8" value="dmcu4" style="rounded=1;whiteSpace=wrap;html=1;" vertex="1" parent="1">
          <mxGeometry x="270" y="390" width="80" height="30" as="geometry" />
        </mxCell>
        <mxCell id="Kd89IbtlPx_BLbznbSWo-10" value="ep1" style="rounded=1;whiteSpace=wrap;html=1;" vertex="1" parent="1">
          <mxGeometry x="10" y="320" width="80" height="30" as="geometry" />
        </mxCell>
        <mxCell id="Kd89IbtlPx_BLbznbSWo-11" value="ep2" style="rounded=1;whiteSpace=wrap;html=1;" vertex="1" parent="1">
          <mxGeometry x="10" y="390" width="80" height="30" as="geometry" />
        </mxCell>
        <mxCell id="Kd89IbtlPx_BLbznbSWo-12" value="ep3" style="rounded=1;whiteSpace=wrap;html=1;" vertex="1" parent="1">
          <mxGeometry x="140" y="460" width="80" height="30" as="geometry" />
        </mxCell>
        <mxCell id="Kd89IbtlPx_BLbznbSWo-13" value="ep4" style="rounded=1;whiteSpace=wrap;html=1;" vertex="1" parent="1">
          <mxGeometry x="270" y="460" width="80" height="30" as="geometry" />
        </mxCell>
        <mxCell id="Kd89IbtlPx_BLbznbSWo-14" value="" style="endArrow=open;startArrow=open;html=1;exitX=1;exitY=0.5;exitDx=0;exitDy=0;entryX=0;entryY=0.5;entryDx=0;entryDy=0;entryPerimeter=0;rounded=0;endFill=0;startFill=0;dashed=1;strokeColor=#006633;" edge="1" parent="1" source="Kd89IbtlPx_BLbznbSWo-10" target="Kd89IbtlPx_BLbznbSWo-5">
          <mxGeometry width="50" height="50" relative="1" as="geometry">
            <mxPoint x="90" y="380" as="sourcePoint" />
            <mxPoint x="140" y="330" as="targetPoint" />
          </mxGeometry>
        </mxCell>
        <mxCell id="Kd89IbtlPx_BLbznbSWo-15" value="" style="endArrow=open;startArrow=open;html=1;exitX=1;exitY=0.5;exitDx=0;exitDy=0;entryX=0;entryY=0.5;entryDx=0;entryDy=0;entryPerimeter=0;rounded=0;endFill=0;startFill=0;dashed=1;strokeColor=#006633;" edge="1" parent="1">
          <mxGeometry width="50" height="50" relative="1" as="geometry">
            <mxPoint x="90" y="404.5" as="sourcePoint" />
            <mxPoint x="140" y="404.5" as="targetPoint" />
          </mxGeometry>
        </mxCell>
        <mxCell id="Kd89IbtlPx_BLbznbSWo-17" value="" style="endArrow=open;startArrow=open;html=1;exitX=1;exitY=0.5;exitDx=0;exitDy=0;entryX=0;entryY=0.5;entryDx=0;entryDy=0;entryPerimeter=0;rounded=0;endFill=0;startFill=0;dashed=1;strokeColor=#006633;" edge="1" parent="1">
          <mxGeometry width="50" height="50" relative="1" as="geometry">
            <mxPoint x="220" y="334.5" as="sourcePoint" />
            <mxPoint x="270" y="334.5" as="targetPoint" />
          </mxGeometry>
        </mxCell>
        <mxCell id="Kd89IbtlPx_BLbznbSWo-18" value="" style="endArrow=open;startArrow=open;html=1;exitX=1;exitY=0.5;exitDx=0;exitDy=0;entryX=0;entryY=0.5;entryDx=0;entryDy=0;entryPerimeter=0;rounded=0;endFill=0;startFill=0;dashed=1;strokeColor=#006633;" edge="1" parent="1">
          <mxGeometry width="50" height="50" relative="1" as="geometry">
            <mxPoint x="220" y="404.5" as="sourcePoint" />
            <mxPoint x="270" y="404.5" as="targetPoint" />
          </mxGeometry>
        </mxCell>
        <mxCell id="Kd89IbtlPx_BLbznbSWo-19" value="" style="endArrow=open;startArrow=open;html=1;entryX=0.5;entryY=0;entryDx=0;entryDy=0;rounded=0;endFill=0;startFill=0;dashed=1;strokeColor=#006633;exitX=0.5;exitY=1;exitDx=0;exitDy=0;" edge="1" parent="1" source="Kd89IbtlPx_BLbznbSWo-5" target="Kd89IbtlPx_BLbznbSWo-7">
          <mxGeometry width="50" height="50" relative="1" as="geometry">
            <mxPoint x="155" y="370" as="sourcePoint" />
            <mxPoint x="205" y="370" as="targetPoint" />
          </mxGeometry>
        </mxCell>
        <mxCell id="Kd89IbtlPx_BLbznbSWo-26" value="" style="endArrow=open;startArrow=open;html=1;entryX=0.5;entryY=0;entryDx=0;entryDy=0;rounded=0;endFill=0;startFill=0;dashed=1;strokeColor=#006633;exitX=0.5;exitY=1;exitDx=0;exitDy=0;" edge="1" parent="1">
          <mxGeometry width="50" height="50" relative="1" as="geometry">
            <mxPoint x="309" y="350" as="sourcePoint" />
            <mxPoint x="309" y="390" as="targetPoint" />
          </mxGeometry>
        </mxCell>
        <mxCell id="Kd89IbtlPx_BLbznbSWo-27" value="" style="endArrow=open;startArrow=open;html=1;entryX=0.5;entryY=0;entryDx=0;entryDy=0;rounded=0;endFill=0;startFill=0;dashed=1;strokeColor=#006633;exitX=0.5;exitY=1;exitDx=0;exitDy=0;" edge="1" parent="1">
          <mxGeometry width="50" height="50" relative="1" as="geometry">
            <mxPoint x="179.5" y="420" as="sourcePoint" />
            <mxPoint x="179.5" y="460" as="targetPoint" />
          </mxGeometry>
        </mxCell>
        <mxCell id="Kd89IbtlPx_BLbznbSWo-28" value="" style="endArrow=open;startArrow=open;html=1;entryX=0.5;entryY=0;entryDx=0;entryDy=0;rounded=0;endFill=0;startFill=0;dashed=1;strokeColor=#006633;exitX=0.5;exitY=1;exitDx=0;exitDy=0;" edge="1" parent="1">
          <mxGeometry width="50" height="50" relative="1" as="geometry">
            <mxPoint x="308" y="420" as="sourcePoint" />
            <mxPoint x="308" y="460" as="targetPoint" />
          </mxGeometry>
        </mxCell>
        <mxCell id="Kd89IbtlPx_BLbznbSWo-30" value="gather-mc" style="rounded=1;whiteSpace=wrap;html=1;" vertex="1" parent="1">
          <mxGeometry x="490" y="240" width="80" height="30" as="geometry" />
        </mxCell>
        <mxCell id="Kd89IbtlPx_BLbznbSWo-31" value="gather-dmcu1" style="rounded=1;whiteSpace=wrap;html=1;" vertex="1" parent="1">
          <mxGeometry x="430" y="320" width="80" height="30" as="geometry" />
        </mxCell>
        <mxCell id="Kd89IbtlPx_BLbznbSWo-32" value="gather-dmcu2" style="rounded=1;whiteSpace=wrap;html=1;" vertex="1" parent="1">
          <mxGeometry x="560" y="320" width="80" height="30" as="geometry" />
        </mxCell>
        <mxCell id="Kd89IbtlPx_BLbznbSWo-33" value="gather-dmcu3" style="rounded=1;whiteSpace=wrap;html=1;" vertex="1" parent="1">
          <mxGeometry x="430" y="390" width="80" height="30" as="geometry" />
        </mxCell>
        <mxCell id="Kd89IbtlPx_BLbznbSWo-34" value="gather-dmcu4" style="rounded=1;whiteSpace=wrap;html=1;" vertex="1" parent="1">
          <mxGeometry x="560" y="390" width="80" height="30" as="geometry" />
        </mxCell>
        <mxCell id="Kd89IbtlPx_BLbznbSWo-35" value="NP4000" style="rounded=1;whiteSpace=wrap;html=1;" vertex="1" parent="1">
          <mxGeometry x="430" y="460" width="80" height="30" as="geometry" />
        </mxCell>
        <mxCell id="Kd89IbtlPx_BLbznbSWo-36" value="NP4000" style="rounded=1;whiteSpace=wrap;html=1;" vertex="1" parent="1">
          <mxGeometry x="560" y="460" width="80" height="30" as="geometry" />
        </mxCell>
        <mxCell id="Kd89IbtlPx_BLbznbSWo-37" value="" style="endArrow=open;startArrow=open;html=1;exitX=1;exitY=0.5;exitDx=0;exitDy=0;entryX=0;entryY=0.5;entryDx=0;entryDy=0;entryPerimeter=0;rounded=0;endFill=0;startFill=0;dashed=1;strokeColor=#006633;" edge="1" parent="1">
          <mxGeometry width="50" height="50" relative="1" as="geometry">
            <mxPoint x="510" y="334.5" as="sourcePoint" />
            <mxPoint x="560" y="334.5" as="targetPoint" />
          </mxGeometry>
        </mxCell>
        <mxCell id="Kd89IbtlPx_BLbznbSWo-38" value="" style="endArrow=open;startArrow=open;html=1;exitX=1;exitY=0.5;exitDx=0;exitDy=0;entryX=0;entryY=0.5;entryDx=0;entryDy=0;entryPerimeter=0;rounded=0;endFill=0;startFill=0;dashed=1;strokeColor=#006633;" edge="1" parent="1">
          <mxGeometry width="50" height="50" relative="1" as="geometry">
            <mxPoint x="510" y="404.5" as="sourcePoint" />
            <mxPoint x="560" y="404.5" as="targetPoint" />
          </mxGeometry>
        </mxCell>
        <mxCell id="Kd89IbtlPx_BLbznbSWo-39" value="" style="endArrow=open;startArrow=open;html=1;entryX=0.5;entryY=0;entryDx=0;entryDy=0;rounded=0;endFill=0;startFill=0;dashed=1;strokeColor=#006633;exitX=0.5;exitY=1;exitDx=0;exitDy=0;" edge="1" parent="1" source="Kd89IbtlPx_BLbznbSWo-31" target="Kd89IbtlPx_BLbznbSWo-33">
          <mxGeometry width="50" height="50" relative="1" as="geometry">
            <mxPoint x="445" y="370" as="sourcePoint" />
            <mxPoint x="495" y="370" as="targetPoint" />
          </mxGeometry>
        </mxCell>
        <mxCell id="Kd89IbtlPx_BLbznbSWo-40" value="" style="endArrow=open;startArrow=open;html=1;entryX=0.5;entryY=0;entryDx=0;entryDy=0;rounded=0;endFill=0;startFill=0;dashed=1;strokeColor=#006633;exitX=0.5;exitY=1;exitDx=0;exitDy=0;" edge="1" parent="1">
          <mxGeometry width="50" height="50" relative="1" as="geometry">
            <mxPoint x="599" y="350" as="sourcePoint" />
            <mxPoint x="599" y="390" as="targetPoint" />
          </mxGeometry>
        </mxCell>
        <mxCell id="Kd89IbtlPx_BLbznbSWo-41" value="" style="endArrow=open;startArrow=open;html=1;entryX=0.5;entryY=0;entryDx=0;entryDy=0;rounded=0;endFill=0;startFill=0;dashed=1;strokeColor=#006633;exitX=0.5;exitY=1;exitDx=0;exitDy=0;" edge="1" parent="1">
          <mxGeometry width="50" height="50" relative="1" as="geometry">
            <mxPoint x="469.5" y="420" as="sourcePoint" />
            <mxPoint x="469.5" y="460" as="targetPoint" />
          </mxGeometry>
        </mxCell>
        <mxCell id="Kd89IbtlPx_BLbznbSWo-42" value="" style="endArrow=open;startArrow=open;html=1;entryX=0.5;entryY=0;entryDx=0;entryDy=0;rounded=0;endFill=0;startFill=0;dashed=1;strokeColor=#006633;exitX=0.5;exitY=1;exitDx=0;exitDy=0;" edge="1" parent="1">
          <mxGeometry width="50" height="50" relative="1" as="geometry">
            <mxPoint x="598" y="420" as="sourcePoint" />
            <mxPoint x="598" y="460" as="targetPoint" />
          </mxGeometry>
        </mxCell>
        <mxCell id="Kd89IbtlPx_BLbznbSWo-52" value="" style="endArrow=classic;html=1;rounded=0;strokeColor=#FFB366;startArrow=open;startFill=0;exitX=0.5;exitY=0;exitDx=0;exitDy=0;" edge="1" parent="1" source="Kd89IbtlPx_BLbznbSWo-4">
          <mxGeometry width="50" height="50" relative="1" as="geometry">
            <mxPoint x="330" y="250" as="sourcePoint" />
            <mxPoint x="380" y="200" as="targetPoint" />
          </mxGeometry>
        </mxCell>
        <mxCell id="Kd89IbtlPx_BLbznbSWo-56" value="" style="endArrow=classic;html=1;rounded=0;strokeColor=#FFB366;startArrow=open;startFill=0;exitX=0.5;exitY=0;exitDx=0;exitDy=0;" edge="1" parent="1" source="Kd89IbtlPx_BLbznbSWo-30">
          <mxGeometry width="50" height="50" relative="1" as="geometry">
            <mxPoint x="330" y="250" as="sourcePoint" />
            <mxPoint x="380" y="200" as="targetPoint" />
          </mxGeometry>
        </mxCell>
        <mxCell id="Kd89IbtlPx_BLbznbSWo-57" value="" style="endArrow=classic;html=1;rounded=0;strokeColor=#FFB366;startArrow=open;startFill=0;entryX=0;entryY=0.5;entryDx=0;entryDy=0;exitX=1;exitY=0.5;exitDx=0;exitDy=0;" edge="1" parent="1" source="Kd89IbtlPx_BLbznbSWo-4" target="Kd89IbtlPx_BLbznbSWo-30">
          <mxGeometry width="50" height="50" relative="1" as="geometry">
            <mxPoint x="220" y="190" as="sourcePoint" />
            <mxPoint x="270" y="140" as="targetPoint" />
          </mxGeometry>
        </mxCell>
        <mxCell id="Kd89IbtlPx_BLbznbSWo-62" value="" style="endArrow=open;startArrow=none;html=1;exitX=1;exitY=0.5;exitDx=0;exitDy=0;entryX=0;entryY=0.5;entryDx=0;entryDy=0;entryPerimeter=0;rounded=0;endFill=0;startFill=0;dashed=1;strokeColor=#006633;" edge="1" parent="1" source="Kd89IbtlPx_BLbznbSWo-6">
          <mxGeometry width="50" height="50" relative="1" as="geometry">
            <mxPoint x="380" y="334.5" as="sourcePoint" />
            <mxPoint x="430" y="334.5" as="targetPoint" />
          </mxGeometry>
        </mxCell>
        <mxCell id="Kd89IbtlPx_BLbznbSWo-63" value="" style="endArrow=open;startArrow=none;html=1;exitX=1;exitY=0.5;exitDx=0;exitDy=0;entryX=0;entryY=0.5;entryDx=0;entryDy=0;entryPerimeter=0;rounded=0;endFill=0;startFill=0;dashed=1;strokeColor=#006633;" edge="1" parent="1" source="Kd89IbtlPx_BLbznbSWo-8">
          <mxGeometry width="50" height="50" relative="1" as="geometry">
            <mxPoint x="380" y="404.5" as="sourcePoint" />
            <mxPoint x="430" y="404.5" as="targetPoint" />
          </mxGeometry>
        </mxCell>
      </root>
    </mxGraphModel>
  </diagram>
</mxfile>
